<mxfile host="app.diagrams.net" agent="Mozilla/5.0 (Macintosh; Intel Mac OS X 10_15_7) AppleWebKit/537.36 (KHTML, like Gecko) Chrome/138.0.0.0 Safari/537.36" version="28.0.3">
  <diagram name="Seite-1" id="j2rsZWHjF2LK3IaVKoLt">
    <mxGraphModel dx="1687" dy="1126" grid="1" gridSize="10" guides="1" tooltips="1" connect="1" arrows="1" fold="1" page="1" pageScale="1" pageWidth="827" pageHeight="1169" math="0" shadow="0">
      <root>
        <mxCell id="0" />
        <mxCell id="1" parent="0" />
        <mxCell id="JqThh1k-Lj8XiByJB2Hw-11" style="edgeStyle=orthogonalEdgeStyle;rounded=0;orthogonalLoop=1;jettySize=auto;html=1;dashed=1;startArrow=none;startFill=0;" parent="1" source="JqThh1k-Lj8XiByJB2Hw-1" target="JqThh1k-Lj8XiByJB2Hw-10" edge="1">
          <mxGeometry relative="1" as="geometry" />
        </mxCell>
        <mxCell id="JqThh1k-Lj8XiByJB2Hw-1" value="&lt;b&gt;SpacesStore&lt;/b&gt;&lt;div&gt;&lt;br&gt;&lt;/div&gt;&lt;div&gt;initialize(persistence)&lt;/div&gt;" style="rounded=1;whiteSpace=wrap;html=1;fillColor=#d5e8d4;strokeColor=#82b366;" parent="1" vertex="1">
          <mxGeometry x="310" y="260" width="174" height="90" as="geometry" />
        </mxCell>
        <mxCell id="JqThh1k-Lj8XiByJB2Hw-2" value="FirebaseSpacesPersistence" style="shape=cylinder3;whiteSpace=wrap;html=1;boundedLbl=1;backgroundOutline=1;size=15;fillColor=#fff2cc;strokeColor=#d6b656;" parent="1" vertex="1">
          <mxGeometry x="580" y="265" width="170" height="80" as="geometry" />
        </mxCell>
        <mxCell id="JqThh1k-Lj8XiByJB2Hw-3" style="edgeStyle=orthogonalEdgeStyle;rounded=0;orthogonalLoop=1;jettySize=auto;html=1;entryX=0;entryY=0.5;entryDx=0;entryDy=0;entryPerimeter=0;" parent="1" source="JqThh1k-Lj8XiByJB2Hw-1" target="JqThh1k-Lj8XiByJB2Hw-2" edge="1">
          <mxGeometry relative="1" as="geometry" />
        </mxCell>
        <mxCell id="JqThh1k-Lj8XiByJB2Hw-4" value="IndexedDbSpacesPersistence" style="shape=cylinder3;whiteSpace=wrap;html=1;boundedLbl=1;backgroundOutline=1;size=15;fillColor=#fff2cc;strokeColor=#d6b656;" parent="1" vertex="1">
          <mxGeometry x="580" y="160" width="170" height="80" as="geometry" />
        </mxCell>
        <mxCell id="JqThh1k-Lj8XiByJB2Hw-5" style="edgeStyle=orthogonalEdgeStyle;rounded=0;orthogonalLoop=1;jettySize=auto;html=1;entryX=0;entryY=0.5;entryDx=0;entryDy=0;entryPerimeter=0;" parent="1" source="JqThh1k-Lj8XiByJB2Hw-1" target="JqThh1k-Lj8XiByJB2Hw-4" edge="1">
          <mxGeometry relative="1" as="geometry" />
        </mxCell>
        <mxCell id="JqThh1k-Lj8XiByJB2Hw-8" style="edgeStyle=orthogonalEdgeStyle;rounded=0;orthogonalLoop=1;jettySize=auto;html=1;entryX=0.5;entryY=0;entryDx=0;entryDy=0;exitX=0.5;exitY=1;exitDx=0;exitDy=0;" parent="1" source="JqThh1k-Lj8XiByJB2Hw-6" target="JqThh1k-Lj8XiByJB2Hw-1" edge="1">
          <mxGeometry relative="1" as="geometry">
            <mxPoint x="404" y="205" as="sourcePoint" />
          </mxGeometry>
        </mxCell>
        <mxCell id="JqThh1k-Lj8XiByJB2Hw-6" value="" style="rounded=0;whiteSpace=wrap;html=1;align=center;" parent="1" vertex="1">
          <mxGeometry x="420" y="35" width="160" height="120" as="geometry" />
        </mxCell>
        <mxCell id="JqThh1k-Lj8XiByJB2Hw-7" value="AppService" style="text;html=1;align=center;verticalAlign=middle;whiteSpace=wrap;rounded=0;" parent="1" vertex="1">
          <mxGeometry x="520" width="60" height="30" as="geometry" />
        </mxCell>
        <mxCell id="JqThh1k-Lj8XiByJB2Hw-9" value="&lt;div&gt;initialize with&lt;/div&gt;useDB().spacesDB" style="rounded=1;whiteSpace=wrap;html=1;" parent="1" vertex="1">
          <mxGeometry x="440" y="65" width="120" height="60" as="geometry" />
        </mxCell>
        <mxCell id="JqThh1k-Lj8XiByJB2Hw-10" value="&lt;b&gt;spaces: &lt;/b&gt;Map&amp;lt;string, Space&amp;gt;&lt;br&gt;&lt;br&gt;&lt;b&gt;space: &lt;/b&gt;Space&lt;div&gt;&lt;br&gt;&lt;/div&gt;&lt;div&gt;&lt;b&gt;currentFromLocalStorage&lt;/b&gt;: string&lt;/div&gt;" style="rounded=1;whiteSpace=wrap;html=1;" parent="1" vertex="1">
          <mxGeometry x="310" y="370" width="174" height="110" as="geometry" />
        </mxCell>
        <mxCell id="JqThh1k-Lj8XiByJB2Hw-12" value="&lt;div&gt;initialize with&lt;/div&gt;IFirestoreServices" style="rounded=1;whiteSpace=wrap;html=1;" parent="1" vertex="1">
          <mxGeometry x="605" y="380" width="120" height="60" as="geometry" />
        </mxCell>
        <mxCell id="wCz7cpYeBj2yW4iGZYnj-1" value="addSpace(string)" style="rounded=0;whiteSpace=wrap;html=1;align=center;" vertex="1" parent="1">
          <mxGeometry x="30" y="245" width="220" height="120" as="geometry" />
        </mxCell>
        <mxCell id="wCz7cpYeBj2yW4iGZYnj-4" style="edgeStyle=orthogonalEdgeStyle;rounded=0;orthogonalLoop=1;jettySize=auto;html=1;entryX=0.5;entryY=0;entryDx=0;entryDy=0;" edge="1" parent="1" source="wCz7cpYeBj2yW4iGZYnj-3" target="wCz7cpYeBj2yW4iGZYnj-1">
          <mxGeometry relative="1" as="geometry" />
        </mxCell>
        <mxCell id="wCz7cpYeBj2yW4iGZYnj-3" value="CreateSpaceCommand&lt;span style=&quot;white-space: pre;&quot;&gt;&#x9;&lt;/span&gt;" style="rounded=0;whiteSpace=wrap;html=1;align=center;fillColor=#f8cecc;strokeColor=#b85450;" vertex="1" parent="1">
          <mxGeometry x="30" y="120" width="220" height="55" as="geometry" />
        </mxCell>
        <mxCell id="wCz7cpYeBj2yW4iGZYnj-2" value="SpacesService.ts" style="text;html=1;align=center;verticalAlign=middle;whiteSpace=wrap;rounded=0;fillColor=default;" vertex="1" parent="1">
          <mxGeometry x="141" y="210" width="110" height="30" as="geometry" />
        </mxCell>
        <mxCell id="wCz7cpYeBj2yW4iGZYnj-6" style="edgeStyle=orthogonalEdgeStyle;rounded=0;orthogonalLoop=1;jettySize=auto;html=1;entryX=0.25;entryY=0;entryDx=0;entryDy=0;" edge="1" parent="1" source="wCz7cpYeBj2yW4iGZYnj-5" target="JqThh1k-Lj8XiByJB2Hw-1">
          <mxGeometry relative="1" as="geometry" />
        </mxCell>
        <mxCell id="wCz7cpYeBj2yW4iGZYnj-5" value="DeleteSpaceCommand" style="rounded=0;whiteSpace=wrap;html=1;align=center;fillColor=#f8cecc;strokeColor=#b85450;" vertex="1" parent="1">
          <mxGeometry x="250" y="35" width="160" height="55" as="geometry" />
        </mxCell>
        <mxCell id="wCz7cpYeBj2yW4iGZYnj-7" style="edgeStyle=orthogonalEdgeStyle;rounded=0;orthogonalLoop=1;jettySize=auto;html=1;entryX=0;entryY=0.5;entryDx=0;entryDy=0;" edge="1" parent="1" source="wCz7cpYeBj2yW4iGZYnj-1" target="JqThh1k-Lj8XiByJB2Hw-1">
          <mxGeometry relative="1" as="geometry" />
        </mxCell>
      </root>
    </mxGraphModel>
  </diagram>
</mxfile>
